<svg xmlns="http://www.w3.org/2000/svg" viewBox="0 0 620 122" role="img" aria-labelledby="title desc"><title id="title">SAVOY CIGAR</title><desc id="desc">Red flame symbol with Savoy Cigar wordmark</desc><defs><linearGradient id="flame" x1="0" y1="0" x2="1" y2="1"><stop offset="0" stop-color="#ff4a51"/><stop offset=".48" stop-color="#e41423"/><stop offset="1" stop-color="#a80012"/></linearGradient><filter id="glow" x="-60%" y="-60%" width="220%" height="220%"><feGaussianBlur stdDeviation="4" result="b"/><feMerge><feMergeNode in="b"/><feMergeNode in="SourceGraphic"/></feMerge></filter></defs><g transform="translate(8 5)" filter="url(#glow)"><path fill="url(#flame)" d="M60 3c5 24-7 40-19 54-10 12-15 24-8 35 7 12 24 15 35 7 9-7 10-21 2-27-6-5-15-2-15 5 0 4 4 7 8 6-2 5-8 8-14 5-9-5-8-16-2-24 10-13 24-27 13-61Z"/><path fill="none" stroke="#ff9c91" stroke-width="2.2" stroke-linecap="round" d="M58 12c-1 18-13 31-23 44-11 15-14 30-3 42"/></g><text x="100" y="82" fill="#08224b" font-family="Arial,Helvetica,sans-serif" font-size="66" font-weight="600" letter-spacing="5">SAVOY CIGAR</text><path d="M101 98H605" stroke="#1260ff" stroke-width="4"/></svg>
